<?xml version="1.0" encoding="utf-8" ?><svg xmlns="http://www.w3.org/2000/svg" xmlns:xlink="http://www.w3.org/1999/xlink" width="1024" height="1024" viewBox="0 0 1024 1024"><path d="M406.489 104.301C411.163 103.671 416.031 103.691 420.668 104.611C424.682 105.406 428.964 106.971 432.298 109.376C441.66 116.13 468.542 149.868 475.527 160.395C493.341 161.586 511.244 164.491 529.002 166.457L651.09 180.345L736.03 190.359C748.704 191.87 761.953 192.44 774.457 194.903C781.404 196.271 787.391 199.204 791.28 205.404C793.446 208.857 794.173 213.164 793.92 217.185C793.422 225.107 789.845 233.353 787.396 240.861C784.66 249.249 782.002 257.652 779.907 266.226C791.953 267.064 815.563 267.786 826.408 272.058C830.76 273.728 834.623 276.463 837.643 280.014C843.131 286.539 845.091 295.144 844.55 303.507C843.785 315.329 839.703 327.599 837.095 339.167C833.661 355.072 830.407 371.015 827.333 386.993C816.435 440.829 808.667 495.252 804.067 549.987C822.781 557.914 842.178 564.903 860.557 573.536C863.659 570.481 867.576 568.25 871.697 566.882C877.618 564.915 885.607 564.471 891.59 566.39C894.063 567.184 896.416 568.462 899.017 568.792C904.092 569.437 909.622 568.768 914.749 568.772C926.598 568.781 938.432 572.622 948.899 577.963C963.122 585.222 977.762 596.858 982.726 612.662C985.298 620.849 984.069 627.285 980.122 634.737C981.22 643.501 980.824 652.38 976.148 660.133C974.86 662.268 972.477 663.945 971.452 666.168C969.104 671.263 969.062 676.215 965.394 680.89C961.748 685.538 956.263 688.498 952.852 693.393C949.95 697.559 949.243 702.874 946.361 707.018C942.834 712.09 936.713 715.112 930.743 716.22C924.271 717.422 917.194 716.461 911.762 712.564C903.929 706.945 901.609 696.817 901.609 687.695C901.609 685.235 902.131 681.491 901.432 679.137C901.06 677.882 900.535 677.571 899.406 676.981C897.108 675.78 894.431 675.113 892.011 674.168C887.254 672.286 882.724 669.875 878.506 666.981C865.598 658.003 857.912 645.828 855.239 630.441C846.021 621.396 837.475 619.554 826.468 613.914C817.072 609.029 807.771 603.961 798.572 598.712C797.065 606.644 796.809 615.071 796.155 623.129C794.929 638.25 793.79 653.378 792.74 668.512C792.182 676.275 792.153 684.853 790.481 692.459C789.613 696.403 787.886 700.108 785.422 703.309C782.339 707.313 778.434 710.189 773.592 711.672C763.926 714.633 752.464 714.289 742.411 714.924L678.154 718.74C667.863 719.309 656.979 718.933 646.814 720.511C646.615 720.541 646.417 720.576 646.219 720.609C644.221 735.998 640.788 751.549 636.39 766.426C641.787 768.453 646.376 770.461 649.177 775.852C653.243 783.679 650.861 792.928 648.32 800.802L661.831 802.093C685.801 804.575 710.216 810.554 726.038 830.232C731.1 836.529 734.693 843.853 737.338 851.459C738.512 854.835 739.434 858.491 740.966 861.718C742.822 865.629 746.174 868.564 747.578 872.68C748.765 876.163 748.918 879.997 748.51 883.635C747.534 892.325 742.6 899.412 735.806 904.682C715.793 920.207 683.075 921.071 658.929 918.102C624.147 913.824 592.264 899.131 563.357 879.761C555.857 874.735 547.506 869.487 541.944 862.26C538.349 857.587 536.056 851.92 537.03 845.943C538.11 839.318 545.356 838.155 548.776 833.31C550.385 831.03 551.242 828.032 552.187 825.417C555.705 815.675 558.452 804.939 567.31 798.642C568.074 790.007 569.843 779.204 574.975 772.029C579.738 765.37 587.205 763.009 594.87 761.589C595.846 748.637 595.183 735.941 594.855 722.988C574.45 723.904 554.055 725.539 533.679 726.947C523.215 727.67 512.494 727.787 502.099 728.968C480.031 729.62 458.081 731.929 435.97 732.15L437.016 759.204C445.202 760.473 453.081 762.749 458.942 768.972C464.792 775.184 465.509 782.421 465.386 790.49C476.876 802.719 477.303 818.331 480.802 833.766C482.699 834.486 484.477 835.359 486.062 836.64C489.827 839.681 492.415 844.022 492.726 848.907C493.115 855.031 490.127 860.272 486.197 864.701C479.193 872.596 470.053 878.526 461.18 884.108C431.975 902.48 400.51 915.087 365.803 917.097C340.923 918.538 309.944 914.17 290.851 896.978C285.954 892.569 282.091 887.112 281.879 880.292C281.642 872.645 285.614 868.441 290.404 863.146C290.624 861.796 290.852 860.447 291.088 859.099C294.212 841.377 303.642 826.495 318.525 816.232C334.597 805.149 351.678 803.699 370.479 807.101C374.984 803.917 379.647 801.192 384.425 798.447C383.049 792.785 382.258 786.059 383.458 780.301C385.155 772.151 390.47 767.331 397.132 763.033C393.381 753.993 389.825 744.792 385.552 735.985C366.912 735.653 298.243 742.422 285.075 737.298C267.282 730.374 247.293 672.466 240.487 654.408L228.022 621.505C226.16 616.457 224.65 611.072 222.488 606.17C221.922 604.887 221.772 604.203 220.442 603.704C215.799 605.37 210.596 606.158 205.683 606.409C180.608 607.688 159.726 590.421 142.236 574.609C134.585 575.879 124.505 577.929 116.976 575.315C110.21 572.965 107.344 567.359 104.56 561.288C103.028 560.894 101.506 560.46 99.9968 559.987C82.926 554.48 71.7746 542.825 63.8208 527.121C55.4835 523.411 49.2586 517.047 44.9248 509.084C39.606 499.311 35.8962 486.238 39.2975 475.246C42.0198 466.447 48.3424 460.97 56.2078 456.835C56.357 455.426 56.5241 454.02 56.709 452.615C57.7052 445.579 61.0049 438.601 66.8552 434.353C74.9664 428.462 84.7378 429.145 94.0261 430.751C94.697 429.287 84.1283 394.303 96.5838 372.636C100.608 365.636 106.979 360.782 114.782 358.713C123.281 356.459 134.092 357.129 141.707 361.803C146.309 364.627 149.152 369.228 149.714 374.592C150.391 381.065 148.005 388.337 146.902 394.709C143.943 411.801 144.242 428.505 148.348 445.357C153.711 446.007 159.542 446.953 164.653 448.695C171.396 450.994 176.708 455.667 179.778 462.106C186.975 477.203 184.456 493.617 178.974 508.694C180.171 510.702 181.259 512.774 182.231 514.901C186.361 523.852 186.525 532.293 183.132 541.486C188.032 547.418 193.342 553.245 199.963 557.3C204.534 554.111 208.496 549.792 212.442 545.872C209.21 536.795 206.274 527.579 203.331 518.406C181.119 451.237 162.472 382.941 147.47 313.803C144.039 297.245 139.037 279.682 138.822 262.717C138.746 256.68 140.018 250.835 142.905 245.498C152.183 228.351 188.739 214.55 206.973 208.942C206.035 201.898 206.494 194.411 206.496 187.313C206.502 170.568 204.927 144.27 215.631 130.5C219.262 125.83 224.769 122.215 230.468 120.684C238.111 118.632 246.466 118.394 254.334 117.746L281.112 115.418L370.797 107.419C382.686 106.346 394.619 105.557 406.489 104.301Z"/><path fill="#FBC333" d="M181.196 384.685C182.149 382.989 183.526 381.741 184.975 380.473C197.29 369.698 211.807 360.995 225.299 351.742C277.353 316.046 318.747 290.966 381.024 276.776C420.418 267.8 462.501 267.772 502.735 267.87C532.707 267.943 562.535 269.166 592.469 270.56C632.715 272.531 672.926 275.153 713.088 278.424C749.668 281.614 786.217 286.072 822.835 288.699C825.583 293.047 827.042 297.416 827.967 302.444C822.347 317.95 820.163 334.96 816.829 351.08C808.088 392.478 800.769 434.163 794.886 476.062C793.301 487.105 791.923 498.178 790.752 509.273C789.997 516.605 789.655 524.096 788.278 531.335C786.309 553.291 783.282 575.132 781.368 597.093L775.992 659.305C775.243 668.207 774.939 677.202 773.932 686.069C773.531 689.599 773.126 692.851 770.061 695.111C766.714 697.579 760.693 697.365 756.706 697.67C700.159 701.663 643.559 704.86 586.923 707.257L440.013 715.014L349.254 719.647C331.026 720.691 308.297 723.961 290.481 721.451C278.885 714.279 252.028 641.332 245.88 623.842C242.219 613.342 238.831 602.749 235.718 592.073C250.588 577.391 262.039 560.686 270.343 541.48C267.547 531.314 261.54 521.027 252.218 515.557C248.909 513.615 245.216 512.566 241.433 513.678C233.606 515.979 229.251 526.064 225.529 532.629C214.66 500.859 204.669 468.796 195.568 436.475C192.568 425.654 189.647 414.813 186.803 403.95C185.119 397.601 183.719 390.755 181.196 384.685Z"/><path fill="#E99519" d="M243.943 357.136C244.233 357.557 244.618 357.99 244.765 358.481C248.665 370.29 250.378 382.995 252.63 395.201C255.341 409.889 258.299 424.532 261.502 439.121C273.891 498.64 289.601 557.419 308.558 615.183C315.324 636.232 322.906 661.843 332.159 681.522C341.36 684.798 353.484 685.33 363.244 685.551C383.911 686.021 404.459 684.368 424.972 681.978C463.865 677.446 503.1 669.332 540.984 659.573C548.363 657.672 561.856 655.605 567.197 650.489C574.215 649.23 580.368 646.723 586.788 643.694C587.067 643.849 587.332 644.031 587.624 644.16C591.425 645.845 602.553 640.187 606.344 638.604C628.764 629.242 650.301 617.994 671.65 606.431C694.397 594.331 716.606 581.246 738.214 567.212C748.816 560.177 759.219 552.568 769.4 544.932C775.458 540.388 781.555 534.839 788.278 531.335C786.309 553.291 783.282 575.132 781.368 597.093L775.992 659.305C775.243 668.207 774.939 677.202 773.932 686.069C773.531 689.599 773.126 692.851 770.061 695.111C766.714 697.579 760.693 697.365 756.706 697.67C700.159 701.663 643.559 704.86 586.923 707.257L440.013 715.014L349.254 719.647C331.026 720.691 308.297 723.961 290.481 721.451C278.885 714.279 252.028 641.332 245.88 623.842C242.219 613.342 238.831 602.749 235.718 592.073C250.588 577.391 262.039 560.686 270.343 541.48C267.547 531.314 261.54 521.027 252.218 515.557C248.909 513.615 245.216 512.566 241.433 513.678C233.606 515.979 229.251 526.064 225.529 532.629C214.66 500.859 204.669 468.796 195.568 436.475C192.568 425.654 189.647 414.813 186.803 403.95C185.119 397.601 183.719 390.755 181.196 384.685C181.914 384.958 181.844 384.951 182.714 385.172C185.361 385.844 188.697 385.493 191.388 385.155C211.559 382.624 227.546 367.877 243.943 357.136Z"/><path d="M244.765 358.481C248.665 370.29 250.378 382.995 252.63 395.201C255.341 409.889 258.299 424.532 261.502 439.121C273.891 498.64 289.601 557.419 308.558 615.183C315.324 636.232 322.906 661.843 332.159 681.522C335.914 693.241 341.783 704.982 346.6 716.335C337.979 705.92 330.42 687.547 324.838 675.001C286.744 589.385 266.893 497.059 251.843 404.973L247.608 379.283C246.483 372.71 244.384 365.099 244.765 358.481Z"/><path fill="#FEEA87" d="M181.196 384.685C182.149 382.989 183.526 381.741 184.975 380.473C197.29 369.698 211.807 360.995 225.299 351.742C277.353 316.046 318.747 290.966 381.024 276.776C420.418 267.8 462.501 267.772 502.735 267.87C532.707 267.943 562.535 269.166 592.469 270.56C632.715 272.531 672.926 275.153 713.088 278.424C749.668 281.614 786.217 286.072 822.835 288.699C825.583 293.047 827.042 297.416 827.967 302.444C812.831 301.806 797.404 299.386 782.323 297.78C761.876 295.52 741.392 293.615 720.879 292.065C707.619 290.974 694.357 289.741 681.055 289.309C674.642 284.156 668.072 279.717 659.978 277.734C646.619 274.46 635.136 278.983 623.818 285.877C612.227 286.273 598.927 284.515 587.127 283.93C560.197 282.593 533.256 281.443 506.286 282.025C496.929 276.344 487.373 272.648 476.353 275.363C470.063 276.912 464.183 280.276 458.953 284.021C393.867 281.231 332.296 301.647 277.034 334.942C266.509 341.284 254.396 347.459 245.306 355.778C244.86 356.186 244.314 356.655 243.943 357.136C227.546 367.877 211.559 382.624 191.388 385.155C188.697 385.493 185.361 385.844 182.714 385.172C181.844 384.951 181.914 384.958 181.196 384.685Z"/><path d="M623.818 285.877C635.136 278.983 646.619 274.46 659.978 277.734C668.072 279.717 674.642 284.156 681.055 289.309L682.608 291.122C695.775 306.587 697.988 317.727 696.38 337.646C684.856 328.237 673.059 318.016 659.266 312.107C638.739 303.312 619.569 309.92 600.019 317.812C605.217 304.423 612.833 295.004 623.818 285.877Z"/><path fill="#25516E" d="M618.639 296.959C628.624 288.103 639.829 281.281 653.655 282.102C664.219 282.73 673.335 288.186 680.234 296.014C685.484 301.97 689.225 308.931 691.795 316.418C693.893 320.866 693.681 325.536 693.775 330.335C685.337 323.545 677.62 316.503 668.132 311.086C648.891 300.099 630.555 301.927 609.958 307.589C612.273 303.672 615.2 299.943 618.639 296.959Z"/><path fill="#3A7492" d="M618.639 296.959C628.624 288.103 639.829 281.281 653.655 282.102C664.219 282.73 673.335 288.186 680.234 296.014C685.484 301.97 689.225 308.931 691.795 316.418C687.385 314.807 680.527 308.135 676.045 305.297C664.082 297.723 648.226 291.496 633.777 293.661C629.044 294.369 624.085 296.682 619.451 296.929C619.18 296.943 618.91 296.949 618.639 296.959Z"/><path d="M458.953 284.021C464.183 280.276 470.063 276.912 476.353 275.363C487.373 272.648 496.929 276.344 506.286 282.025C517.967 291.543 524.927 300.437 528.644 315.138C508.131 306.609 488.717 301.032 467.183 309.843C457.272 313.872 448.184 319.683 440.369 326.989C436.525 330.552 432.891 334.426 428.86 337.773C432.843 315.29 440.812 298.406 458.953 284.021Z"/><path fill="#25516E" d="M449.468 299.386C449.986 298.743 450.514 298.121 451.07 297.51C459.404 288.348 470.846 280.037 483.669 279.501C493.527 279.089 501.469 283.79 508.471 290.294C513.503 294.837 517.271 300.094 520.908 305.789C496.419 298.965 476.916 297.018 453.986 310.083C447.775 313.622 441.649 318.004 436.284 322.745C439.551 313.937 442.96 306.257 449.468 299.386Z"/><path fill="#3A7492" d="M449.468 299.386C449.986 298.743 450.514 298.121 451.07 297.51C459.404 288.348 470.846 280.037 483.669 279.501C493.527 279.089 501.469 283.79 508.471 290.294C503.648 291.3 497.826 290.083 492.906 289.697C483.74 288.978 475.109 290.156 466.361 292.916C462.092 294.263 453.4 300.399 449.468 299.386Z"/><path d="M522.965 620.962C531.11 632.091 535.468 639.446 549.958 642.752C568.88 647.069 585.515 641.531 601.558 631.567C596.966 636.073 592.028 639.97 586.788 643.694C580.368 646.723 574.215 649.23 567.197 650.489C559.454 650.708 551.313 649.819 544.187 646.62C532.865 641.539 527.207 632.141 522.965 620.962Z"/><path d="M439.783 451.192C442.875 451.042 446.969 451.345 449.581 453.045C447.13 455.206 444.033 453.133 440.938 454.314C436.221 456.114 432.009 458.505 427.993 461.554C496.775 483.556 572.471 493.31 644.082 480.56C658.448 478.003 673.077 474.925 686.654 469.454C689.725 468.216 695.371 466.181 696.712 463.032C696.282 462.06 695.826 461.571 694.862 461.085C689.174 458.217 682.921 460.608 677.31 462.293C681.966 458.931 687.007 455.195 693.076 455.638C696.889 455.916 700.154 457.92 702.546 460.842C708.749 468.419 707.987 477.6 707.22 486.651C705.393 479.295 703.695 472.682 699.472 466.282C691.85 476.95 690.022 492.684 685.874 504.996C681.555 517.899 676.758 530.638 671.493 543.185C668.98 548.974 666.328 554.702 663.539 560.363C649.916 587.65 630.985 614.656 600.715 624.58C572.952 633.683 543.645 629.016 518.035 615.815C472.69 592.44 448.005 545.984 431.824 499.598C428.198 489.203 425.342 478.48 421.976 467.991C417.764 472.66 414.709 477.882 411.541 483.274C412.338 475.425 413.486 468.015 418.6 461.684C424.014 454.982 431.48 452.057 439.783 451.192Z"/><path fill="#161D1F" d="M428.284 472.046C437.743 473.617 446.92 477.071 456.451 478.15C465.805 481.721 476.327 483.242 486.139 485.206C543.134 496.594 601.755 497.238 658.986 487.104C663.541 485.02 668.936 483.947 673.717 482.397C679.601 480.489 685.296 478.045 690.98 475.618C688.519 493.864 679.346 518.487 672.355 535.66C659.227 567.906 640.047 602.603 606.486 616.76C604.668 610.081 602.532 603.745 598.955 597.777C592.769 587.455 582.191 578.052 570.313 575.104C559.061 572.312 547.467 575.094 537.687 580.925C535.095 578.271 532.357 575.782 529.294 573.679C520.315 567.517 510.325 565.4 499.632 567.466C490.972 569.139 484.512 572.618 479.552 580.044C479.395 579.921 479.235 579.801 479.08 579.675C471.299 573.358 458.854 555.248 454.15 545.997C451.296 540.382 449.197 534.274 446.624 528.511C444.341 523.399 441.589 518.497 439.346 513.37C433.984 501.112 429.574 485.281 428.284 472.046Z"/><path fill="#FEFEFE" d="M456.451 478.15C465.805 481.721 476.327 483.242 486.139 485.206C543.134 496.594 601.755 497.238 658.986 487.104C657.21 501.37 653.574 515.645 647.433 528.654C614.042 540.4 499.107 532.16 466.254 519.553C463.337 514.326 461.445 508.514 459.784 502.785C458.216 497.379 453.874 482.794 456.451 478.15Z"/><path fill="#FA847F" d="M500.189 570.911C509.924 569.105 518.004 569.604 526.399 575.417C533.926 580.629 539.497 588.092 544.309 595.762C546.244 598.847 547.972 602.161 550.226 605.015C547.888 596.589 545.208 589.575 539.955 582.467C548.01 578.876 556.391 576.458 565.298 577.046C569.994 577.86 574.268 579.204 578.467 581.482C592.114 588.887 600.224 602.263 604.551 616.761C591.351 620.978 578.672 623.536 564.744 622.748C531.785 620.883 503.754 604.486 482.069 580.268C487.63 575.215 492.847 572.431 500.189 570.911Z"/><path fill="#EC605F" d="M482.069 580.268C487.63 575.215 492.847 572.431 500.189 570.911C500.001 571.137 499.818 571.369 499.624 571.591C496.641 574.997 489.205 575.776 489.322 581.505C489.402 585.488 492.805 588.881 495.626 591.329C515.28 608.38 551.598 620.222 577.52 618.225C581.96 617.883 587.125 617.044 590.175 613.477C592.125 611.195 592.374 608.282 591.991 605.413C590.88 597.108 586.213 590.924 579.57 586.118C575.416 583.113 568.512 580.777 565.298 577.046C569.994 577.86 574.268 579.204 578.467 581.482C592.114 588.887 600.224 602.263 604.551 616.761C591.351 620.978 578.672 623.536 564.744 622.748C531.785 620.883 503.754 604.486 482.069 580.268Z"/><path d="M438.037 397.713C436.717 396.488 435.896 395.185 435.541 393.419C434.796 389.718 435.1 385.613 435.306 381.868C436.193 365.743 439.931 348.873 448.887 335.204C456.912 322.955 469.237 314.174 483.638 311.253C494.84 308.981 505.745 311.35 515.251 317.671C534.137 330.229 543.295 353.325 547.607 374.7C548.43 378.781 549.962 387.479 547.561 391.118C547.253 413.583 543.915 434.903 527.201 451.335C517.776 460.599 505.298 466.708 491.914 466.558C478.703 466.41 466.43 460.254 457.39 450.809C443.617 436.418 438.595 417.132 438.037 397.713Z"/><path fill="#E99519" d="M438.037 397.713C436.717 396.488 435.896 395.185 435.541 393.419C434.796 389.718 435.1 385.613 435.306 381.868C436.193 365.743 439.931 348.873 448.887 335.204C456.912 322.955 469.237 314.174 483.638 311.253C494.84 308.981 505.745 311.35 515.251 317.671C534.137 330.229 543.295 353.325 547.607 374.7C548.43 378.781 549.962 387.479 547.561 391.118C543.14 369.334 535.829 349.36 516.455 336.525C507.15 330.36 495.987 327.851 485.01 330.131C470.79 333.084 459.006 343.653 451.356 355.604C443.209 368.33 439.449 382.799 438.037 397.713Z"/><path fill="#FEFEFE" d="M488.15 338.608C498.365 337.569 508.033 340.133 516.319 346.196C530.195 356.349 539.188 373.712 541.702 390.507C544.353 408.219 540.571 426.881 529.8 441.369C521.833 452.085 510.44 458.839 497.275 460.855C487.78 462.114 476.973 459.011 468.994 453.922C456.072 445.68 447.756 431.634 444.597 416.837C440.5 397.578 444.273 377.481 455.076 361.019C463.103 348.894 473.921 341.519 488.15 338.608Z"/><path d="M486.08 384.57C489.964 384.765 493.599 385.684 496.984 387.647C503.251 391.281 507.281 397.717 509.019 404.629C511.132 413.036 510.117 422.454 505.449 429.851C501.516 436.084 496.199 439.445 489.124 440.962C485.102 440.9 481.509 440.281 477.933 438.337C471.868 435.04 467.854 428.894 466.089 422.336C463.761 413.687 464.764 403.556 469.396 395.817C473.414 389.103 478.769 386.382 486.08 384.57Z"/><path fill="#FEFEFE" d="M477.206 391.462C477.514 391.488 477.825 391.503 478.132 391.541C480.713 391.857 483.096 392.828 484.628 395.008C485.82 396.705 486.094 398.848 485.735 400.857C485.062 404.63 482.955 406.546 479.892 408.581C479.326 408.546 479.365 408.561 478.698 408.446C476.173 408.01 473.668 406.873 472.228 404.661C470.936 402.677 470.733 400.478 471.301 398.211C472.162 394.778 474.323 393.218 477.206 391.462Z"/><path d="M586.841 380.757C584.159 375.023 587.499 365.939 589.531 360.32C595.879 342.759 606.367 324.672 623.954 316.448C633.48 311.994 644.485 311.849 654.323 315.441C668.875 320.754 677.239 330.578 683.586 344.388C690.491 359.411 696.103 387.384 690.056 403.209C689.751 404.016 689.426 404.816 689.083 405.608C688.666 409.656 688.279 413.738 687.517 417.738C684.193 435.199 675.044 452.284 660.039 462.352C650.672 468.638 639.279 471.23 628.16 468.992C615.219 466.388 604.28 457.137 597.175 446.315C584.323 426.739 582.177 403.282 586.841 380.757Z"/><path fill="#E99519" d="M586.841 380.757C584.159 375.023 587.499 365.939 589.531 360.32C595.879 342.759 606.367 324.672 623.954 316.448C633.48 311.994 644.485 311.849 654.323 315.441C668.875 320.754 677.239 330.578 683.586 344.388C690.491 359.411 696.103 387.384 690.056 403.209C689.751 404.016 689.426 404.816 689.083 405.608C688.925 391.041 687.154 377.098 680.373 363.984C673.452 350.598 662.417 339.826 647.831 335.294C637.397 332.051 626.325 333.476 616.763 338.664C600.838 347.306 591.738 363.888 586.841 380.757Z"/><path fill="#FEFEFE" d="M633.679 341.196C643.212 340.967 652.225 343.918 660.011 349.409C673.256 358.75 681.36 374.544 683.916 390.302C686.956 409.04 683.106 428.905 671.927 444.4C663.709 455.791 652.882 462.147 639.115 464.4C628.521 464.89 618.73 461.183 610.458 454.655C597.06 444.083 589.704 427.721 587.852 411.005C585.816 392.625 590.026 373.643 601.819 359.119C609.918 349.145 620.851 342.597 633.679 341.196Z"/><path d="M624.384 387.144C627.954 387.178 631.268 387.84 634.452 389.49C640.513 392.632 644.503 398.412 646.581 404.787C649.167 412.726 648.852 421.9 644.898 429.344C641.329 436.063 635.848 439.435 628.822 441.595C624.209 441.581 619.964 440.688 615.987 438.264C609.911 434.56 606.108 428.047 604.445 421.26C602.526 413.426 603.641 404.975 607.972 398.104C611.887 391.894 617.377 388.711 624.384 387.144Z"/><path fill="#FEFEFE" d="M616.192 394.459C616.495 394.451 616.798 394.439 617.101 394.435C619.212 394.407 621.167 394.955 622.659 396.519C623.928 397.849 624.383 399.622 624.203 401.42C623.867 404.778 622.034 406.571 619.498 408.548C618.954 408.556 618.408 408.57 617.864 408.549C615.823 408.472 613.849 407.671 612.521 406.068C611.411 404.728 611.075 403.092 611.272 401.39C611.656 398.078 613.656 396.349 616.192 394.459Z"/><path fill="#83C2E7" d="M280.247 254.114C281.109 241.754 284.589 229.705 286.599 217.506C288.992 202.976 290.143 188.145 293.323 173.757C293.945 170.94 294.967 165.937 296.869 163.727C298.097 162.3 300.724 162.452 302.488 162.409C324.022 161.883 346.152 165.451 367.546 167.77C393.347 170.566 419.218 172.824 445.05 175.326C520.471 182.719 595.815 190.88 671.071 199.808L738.615 207.39C748.546 208.478 758.62 209.027 768.5 210.461C771.133 210.844 775.241 211.222 777.207 213.09C778.494 215.744 777.637 217.734 776.892 220.397C772.493 235.219 767.717 249.927 762.568 264.506C750.403 262.822 737.983 262.049 725.745 260.979C702.579 258.976 679.397 257.164 656.202 255.544C610.89 252.274 565.508 250.082 520.093 248.97C469.328 248.125 416.287 248.689 366.769 260.928C343.096 266.779 319.954 275.694 297.825 285.864C289.383 289.743 281.052 295.765 272.235 298.519C273.598 288.958 275.531 279.504 277.207 269.996C278.046 265.235 278.356 258.508 280.247 254.114Z"/><path fill="#FEFEFE" d="M280.247 254.114C281.109 241.754 284.589 229.705 286.599 217.506C288.992 202.976 290.143 188.145 293.323 173.757C293.945 170.94 294.967 165.937 296.869 163.727C298.097 162.3 300.724 162.452 302.488 162.409C324.022 161.883 346.152 165.451 367.546 167.77C393.347 170.566 419.218 172.824 445.05 175.326C520.471 182.719 595.815 190.88 671.071 199.808L738.615 207.39C748.546 208.478 758.62 209.027 768.5 210.461C771.133 210.844 775.241 211.222 777.207 213.09C778.494 215.744 777.637 217.734 776.892 220.397C761.143 219.279 745.464 217.528 729.746 216.066C695.651 213.152 661.593 209.828 627.578 206.095L447.141 188.355L371.163 181.446C354.02 179.863 336.781 177.659 319.561 177.301C315.491 177.217 309.174 176.897 305.858 179.638C293.015 190.254 288.663 251.909 281.121 254.529L280.247 254.114Z"/><path fill="#83C2E7" d="M411.76 121.208C413.671 121.039 415.792 121.039 417.673 121.438C419.934 121.918 422.178 123.07 423.971 124.517C433.329 132.071 454.964 160.766 461.924 171.67C445.502 169.925 429.026 168.741 412.605 166.98C393.558 164.938 374.465 162.336 355.323 161.425C354.89 156.308 354.648 149.714 351.278 145.553C349.477 143.33 347.381 142.834 344.643 142.569C332.176 141.367 261.636 145.894 253.914 152.728C250.989 155.317 249.776 158.774 248.872 162.458C246.201 173.345 246.012 185.346 245.074 196.533L239.597 268.12C239.26 286.053 237.416 304.38 236.014 322.28C232.315 325.522 228.547 328.475 224.552 331.341L223.49 209.675C223.5 189.945 221.711 167.311 225.621 147.882C226.173 145.136 227.279 142.672 229.161 140.572C231.442 138.026 234.282 136.994 237.566 136.376C244.313 135.106 251.489 134.951 258.337 134.377L295.289 131.16C334.065 127.68 372.906 123.675 411.76 121.208Z"/><path fill="#FEFEFE" d="M858.365 621.587C854.093 613.44 852.17 605.249 854.929 596.153C857.493 587.7 863.618 580.224 871.525 576.232C878.167 572.878 884.678 572.916 891.889 573.886C885.835 577.592 880.316 581.32 875.023 586.1C893.857 576.771 911.399 573.656 931.731 580.476C946.465 585.418 964.121 595.115 971.269 609.679C973.062 613.331 974.867 619.081 973.725 623.156C973.688 623.29 973.627 623.418 973.578 623.549L973.039 623.648C966.834 616.318 961.867 611.347 952.922 607.398C962.523 618.035 972.279 629.695 971.387 644.959C971.26 647.141 970.847 649.358 970.244 651.455C969.452 654.373 968.246 656.921 966.849 659.586C962.126 648.354 955.581 641.544 944.739 636.102C945.96 633.143 947.049 630.136 948.154 627.132C950.412 617.697 949.734 608.932 947.341 599.581C946.822 614.663 945.735 630.254 934.064 641.275C926.933 648.009 917.652 651.129 907.907 650.775C906.04 650.697 904.174 650.59 902.31 650.453C910.905 654.075 917.174 654.142 926.274 653.106C936.006 664.008 942.683 673.942 941.829 689.088L941.681 691.642C941.669 691.794 941.662 691.946 941.645 692.097C940.994 697.665 938.305 703.516 933.761 706.937C930.969 709.039 927.53 710.072 924.049 709.542C920.477 708.999 917.499 706.821 915.424 703.927C909.661 695.894 910.786 682.61 912.144 673.375C895.511 667.042 878.453 659.66 868.938 643.704C863.244 634.152 862.729 624.359 865.452 613.75C866.978 609.554 868.664 605.492 870.514 601.429C865.461 607.867 861.356 613.905 858.365 621.587Z"/><path fill="#C4C3C2" d="M865.452 613.75C876.614 647.183 897.071 646.305 916.736 668.682C922.175 674.871 924.609 688.469 931.484 692.236C934.442 693.856 938.339 692.838 941.312 691.785C941.437 691.741 941.558 691.689 941.681 691.642C941.669 691.794 941.662 691.946 941.645 692.097C940.994 697.665 938.305 703.516 933.761 706.937C930.969 709.039 927.53 710.072 924.049 709.542C920.477 708.999 917.499 706.821 915.424 703.927C909.661 695.894 910.786 682.61 912.144 673.375C895.511 667.042 878.453 659.66 868.938 643.704C863.244 634.152 862.729 624.359 865.452 613.75Z"/><path fill="#C4C3C2" d="M948.154 627.132C953.695 633.85 965.695 642.394 969.214 649.377C969.563 650.069 969.909 650.756 970.244 651.455C969.452 654.373 968.246 656.921 966.849 659.586C962.126 648.354 955.581 641.544 944.739 636.102C945.96 633.143 947.049 630.136 948.154 627.132Z"/><path fill="#FEFEFE" d="M150.603 455.205C156.26 455.373 161.737 455.874 166.492 459.283C172.096 463.301 174.628 470.028 175.507 476.635C178.68 500.486 164.51 521.037 150.8 539.031C160.639 532.666 167.478 526.078 174.412 516.631C176 521.012 177.734 525.232 177.534 530.004C177.184 538.35 171.536 545.747 165.594 551.16C155.35 560.493 139.368 568.696 125.141 567.721C120.128 567.378 117.154 565.723 113.936 561.96C119.933 560.532 126.307 558.881 131.515 555.472C127.353 555.693 123.146 555.763 118.987 555.444C102.888 554.289 87.9265 546.722 77.4551 534.44C76.0658 532.601 74.9542 530.517 73.7796 528.535C79.85 527.63 86.4753 526.647 90.7399 521.736C95.3305 516.45 94.778 509.721 94.4074 503.227C99.2551 502.148 100.693 500.89 104.857 498.94C107.815 497.555 114.587 501.042 117.676 502.111C117.026 507.921 116.497 513.751 117.768 519.519C119.894 529.167 125.795 535.185 133.821 540.336C123.464 528.3 118.172 518.59 119.157 502.496C136.054 502.884 148.025 497.974 161.726 488.41C157.879 489.911 153.951 491.197 149.961 492.26C138.844 495.158 122.816 497.284 112.472 490.927C107.387 487.803 105.115 483.65 103.758 478.043C104.59 474.595 105.553 472.043 107.931 469.301C117.665 458.081 136.794 455.996 150.603 455.205Z"/><path fill="#FEFEFE" d="M674.047 817.191C674.195 817.173 674.343 817.153 674.491 817.137C688.004 815.561 701.586 819.459 712.206 827.962C724.759 838.217 732.145 853.612 733.711 869.596C717.475 881.22 698.546 884.025 679.122 885.92C659.615 887.349 638.144 883.323 619.803 876.487C621.655 862.251 626.285 847.693 635.353 836.356C645.168 824.084 658.776 818.822 674.047 817.191Z"/><path fill="#FEFEFE" d="M350.322 816.67C362.132 815.37 373.909 818.486 383.841 824.934C400.915 836.019 409.984 854.549 414.148 873.917C397.844 879.462 382.468 882.142 365.308 882.949C342.998 883.447 320.004 877.659 300.233 867.603C301.172 857.445 305.109 846.589 311.269 838.434C320.926 825.647 334.7 818.868 350.322 816.67Z"/><path fill="#FEFEFE" d="M243.843 317.967C243.248 318.366 242.586 318.624 241.936 318.922L241.248 318.469C240.273 314.565 242.46 293.447 242.818 288.208C245.581 247.711 247.881 206.773 252.519 166.463C252.859 163.508 253.089 158.622 255.666 156.807C265.243 150.067 333.127 146.087 346.974 148.162C349.002 152.106 349.551 156.304 350.233 160.629C337.767 159.926 304.654 153.96 294.663 160.239C290.442 162.893 289.893 168.665 288.921 173.108C282.149 202.875 276.674 232.78 271.311 262.828C268.895 276.362 267.535 290.609 264.158 303.893C257.249 308.383 250.474 313.076 243.843 317.967Z"/><path fill="#C4C3C2" d="M243.843 317.967C244.41 310.557 245.818 303.064 247.133 295.755C249.986 279.717 253.864 263.878 258.744 248.336C263.064 234.618 268.223 221.166 272.81 207.535C276.054 197.896 278.496 186.189 283.76 177.523C285.029 175.433 286.482 173.691 288.921 173.108C282.149 202.875 276.674 232.78 271.311 262.828C268.895 276.362 267.535 290.609 264.158 303.893C257.249 308.383 250.474 313.076 243.843 317.967Z"/><path fill="#E99519" d="M160.463 274.177C163.222 273.892 165.867 271.935 168.278 270.612C182.595 262.756 197.063 255.923 212.407 250.312C213.66 278.647 217.428 306.41 220.701 334.535C206.038 345.048 191.335 355.394 177.364 366.829C172.188 348.624 168.404 330.061 164.403 311.57C161.884 299.931 158.409 287.39 157.643 275.517L160.463 274.177Z"/><path fill="#3A7492" d="M205.826 563.731C212.149 557.297 219.399 550.808 224.777 543.59C230.182 536.336 234.328 526.473 241.084 520.478C242.889 518.876 244.68 518.037 247.122 518.249C253.01 518.76 257.42 525.006 260.804 529.243C263.756 533.056 265.123 536.864 266.347 541.449C252.3 561.396 236.139 592.919 209.609 597.444C191.931 600.459 175.815 591.163 162.012 581.199C157.783 578.146 153.607 574.911 149.866 571.267C153.652 569.072 157.431 566.631 161.372 564.737C168.786 560.084 173.944 554.162 179.255 547.32C191.08 558.888 199.313 565.984 214.75 572.494C211.635 569.73 208.754 566.692 205.826 563.731Z"/><path fill="#25516E" d="M260.804 529.243C263.756 533.056 265.123 536.864 266.347 541.449C252.3 561.396 236.139 592.919 209.609 597.444C191.931 600.459 175.815 591.163 162.012 581.199C157.783 578.146 153.607 574.911 149.866 571.267C153.652 569.072 157.431 566.631 161.372 564.737C164.208 568.832 168.361 572.366 172.293 575.371C182.097 582.863 195.466 589.888 208.234 588.017C226.481 585.344 240.801 564.646 249.2 549.791C253.102 542.888 255.98 535.61 260.804 529.243Z"/><path fill="#83C2E7" d="M567.682 806.231C571.33 808.944 574.958 811.747 578.734 814.278C590.732 822.319 607.695 824.375 621.666 821.586C630.553 819.812 637.123 816.254 642.282 808.595C652.509 809.729 662.838 810.436 673.096 811.228C657.838 815.024 644.061 820.542 633.194 832.32C622.914 844.057 618.937 859.826 615.434 874.622C593.82 864.852 574.191 854.654 556.64 838.364C558.765 826.892 562.328 816.594 567.682 806.231Z"/><path fill="#83C2E7" d="M460.28 799.371C466.01 806.368 472.007 830.074 472.533 839.12C464.264 854.149 435.511 864.912 419.979 871.882C417.596 860.577 413.083 850.38 407.645 840.245C399.353 826.959 389.322 817.81 376.212 809.44C380.147 808.084 384.123 806.968 388.138 805.873C389.91 807.267 391.685 808.667 393.513 809.986C404.523 817.932 417.803 821.59 431.27 819.241C444.321 816.964 452.788 809.906 460.28 799.371Z"/><path fill="#FEFEFE" d="M481.137 842.467C482.419 843.201 483.494 844.249 483.751 845.762C484.116 847.915 482.831 850.038 481.706 851.759C471.936 866.712 442.291 883.047 425.628 890.226C414.071 895.275 402.056 899.204 389.748 901.958C357.88 908.925 326.188 905.005 298.533 887.219C296.45 885.582 294.336 883.755 293.544 881.136C292.486 877.638 294.083 874.513 295.725 871.508C308.323 878.164 321.005 882.604 335.024 885.195C376.097 892.786 417.034 882.385 452.636 861.591C462.542 855.805 471.7 848.961 481.137 842.467Z"/><path fill="#FEFEFE" d="M549.338 842.254C555.401 843.936 569.175 856.062 575.616 860.035C587.027 867.075 599.436 873.164 611.863 878.211C645.544 891.891 682.367 895.737 717.044 883.075C725.702 879.913 731.238 875.635 738.79 872.523C738.963 872.452 739.138 872.386 739.311 872.317C739.578 875.486 739.564 878.617 739.536 881.793C738.395 883.718 737.088 885.446 735.731 887.218C725.136 898.121 707.283 902.881 692.763 905.089C646.519 912.121 600.235 892.909 563.569 865.8C558.684 862.188 547.453 854.491 546.76 848.185C546.473 845.578 547.748 844.123 549.338 842.254Z"/><path fill="#FEFEFE" d="M121.298 367.121C124.096 366.805 127.276 366.711 130.038 367.318C134.912 368.389 137.861 371.227 140.506 375.296C136.497 402.03 131.646 418.956 140.07 446.259C133.961 447.644 127.844 448.944 121.879 450.876L117.402 452.47C109.531 442.525 104.148 432.888 101.553 420.372C98.792 407.051 97.5695 387.997 105.704 376.14C109.574 370.498 114.778 368.205 121.298 367.121Z"/><path fill="#3A7492" d="M621.016 721.906C626.269 721.736 631.526 721.7 636.781 721.798C633.631 740.829 626.725 775.772 616.977 791.988C613.472 791.988 609.43 792.118 606.089 790.903C602.905 789.7 600.278 788.091 597.52 786.143C602.656 765.001 603.01 744.16 602.013 722.517C608.352 722.491 614.688 722.287 621.016 721.906Z"/><path fill="#25516E" d="M621.016 721.906C626.269 721.736 631.526 721.7 636.781 721.798C633.631 740.829 626.725 775.772 616.977 791.988C613.472 791.988 609.43 792.118 606.089 790.903C606.351 790.714 606.634 790.549 606.877 790.335C612.642 785.253 619.184 745.237 620.26 736.206C620.829 731.425 621.023 726.716 621.016 721.906Z"/><path fill="#FEFEFE" d="M591.442 769.468C592.003 769.724 592.541 770.113 593.066 770.439C594.549 773.835 593.249 777.563 592.514 781.023C591.168 780.096 589.347 778.763 587.768 778.365C586.762 778.112 586.56 778.304 585.738 778.807C585.497 780.551 586.237 781.961 587.099 783.433C590.959 790.016 597.135 794.874 604.562 796.745C610.806 798.318 619.205 797.74 624.75 794.264C626.539 793.142 628.656 791.359 629.134 789.241C627.926 788.998 627.437 789.059 626.476 788.242C627.926 783.737 630.27 779.377 632.265 775.082C635.72 776.438 638.871 777.911 640.653 781.365C642.906 785.729 641.348 791.209 639.903 795.596C636.739 803.136 632.632 810.925 624.688 814.35C613.597 819.132 599.674 817.548 588.791 812.989C583.805 810.9 578.017 807.706 575.994 802.388C573.553 795.968 576.431 785.693 579.287 779.695C582.013 773.969 585.648 771.478 591.442 769.468Z"/><path fill="#FEFEFE" d="M83.8574 438.147C84.9002 438.078 85.9549 438.011 87 438.056C96.8676 438.48 105.595 448.501 111.988 455.096C106.961 457.953 102.081 461.52 98.893 466.434C95.09 472.236 94.4156 479.548 97.0929 485.948C97.8715 487.851 99.281 489.854 99.664 491.861C99.84 492.784 99.8824 492.361 99.283 493.241C92.9139 494.161 87.2142 494.62 81.6075 490.731C73.2862 484.96 68.3124 473.208 66.5917 463.552C65.4901 457.37 65.4587 450.727 69.3403 445.437C72.9864 440.469 78.0544 438.963 83.8574 438.147Z"/><path fill="#25516E" d="M802.639 559.467C819.292 566.685 836.106 573.522 853.07 579.974C850.786 583.43 848.581 586.826 846.744 590.549C845.685 593.745 844.745 596.922 844.187 600.249C843.76 604.465 844.256 608.66 844.629 612.861C828.925 606.974 815.254 597.141 799.427 591.52C799.945 587.892 800.319 584.231 800.726 580.588C801.02 576.593 801.379 572.602 801.802 568.619L802.639 559.467Z"/><path fill="#3A7492" d="M802.639 559.467C819.292 566.685 836.106 573.522 853.07 579.974C850.786 583.43 848.581 586.826 846.744 590.549C839.705 588.297 804.638 573.179 801.802 568.619L802.639 559.467Z"/><path fill="#FEFEFE" d="M437.455 769.121C442.197 770.243 446.864 771.679 450.556 775.039C454.65 778.764 456.55 784.264 456.794 789.699C457.042 795.237 454.941 800.209 451.198 804.232C444.724 811.189 434.628 814.982 425.263 815.402C416.061 815.815 404.649 813.108 397.862 806.562C391.569 800.491 391.418 792.499 391.44 784.376C392.67 778.506 396.755 774.738 401.515 771.53C404.47 777.357 406.242 783.649 408.053 789.898C406.13 789.027 404.032 788.151 401.979 787.63C400.684 787.301 399.927 787.216 398.802 787.929C399.257 789.512 400.195 790.327 401.419 791.404C406.999 796.312 413.903 799.381 421.466 798.717C429.687 797.994 438.468 793.395 443.76 787.057C444.942 785.641 445.919 784.369 445.73 782.482L444.613 782.039C441.999 782.341 439.819 783.743 437.532 784.966C437.387 779.689 437.46 774.399 437.455 769.121Z"/><path fill="#3A7492" d="M412.102 734.257C417.548 733.609 422.9 733.5 428.374 733.455C429.329 741.884 434.05 785.203 430.132 789.399C427.282 792.452 419.977 792.643 416.171 792.206C415.901 792.175 415.633 792.129 415.364 792.091C413.229 790.13 406.914 768.006 405.237 763.555C401.66 754.055 397.563 744.785 393.459 735.506C399.626 735.254 406.03 735.402 412.102 734.257Z"/><path fill="#25516E" d="M412.102 734.257C417.548 733.609 422.9 733.5 428.374 733.455C429.329 741.884 434.05 785.203 430.132 789.399C427.282 792.452 419.977 792.643 416.171 792.206C415.901 792.175 415.633 792.129 415.364 792.091C417.587 791.84 419.895 791.905 422.132 791.854C423.016 772.747 419.212 751.997 412.102 734.257Z"/><path fill="#FEEA87" d="M157.643 275.517C156.358 269.261 154.355 262.096 157.313 256.019C164.39 241.478 196.912 230.297 211.497 224.996C212.022 232.037 212.009 239.066 212.026 246.123C193.573 253.272 176.375 262.37 160.463 274.177L157.643 275.517Z"/><path fill="#FEFEFE" d="M57.3169 467.405C60.2799 470.437 61.807 477.129 63.4533 481.08C68.1461 492.344 76.3891 498.502 87.3742 503.054C87.7149 506.765 88.5709 511.581 86.3639 514.884C84.6173 517.497 81.8696 517.975 78.9965 518.559C76.5472 518.628 74.008 518.775 71.5745 518.459C64.7893 517.579 58.9485 513.36 54.9526 507.963C49.6712 500.83 45.6092 490.023 47.1871 481.068C48.3207 474.635 52.1996 470.94 57.3169 467.405Z"/><path fill="#FEFEFE" d="M944.041 637.919C951.946 643.593 957.897 652.343 959.543 662.036C959.931 664.355 960.044 666.712 959.878 669.058C957.736 675.284 953.644 679.913 949.227 684.658C948.767 682.01 948.379 679.27 947.665 676.676C944.623 665.624 937.264 657.821 927.467 652.262C930.197 650.906 932.792 649.299 935.41 647.741C938.641 644.765 941.462 641.477 944.041 637.919Z"/><path fill="#C4C3C2" d="M927.467 652.262C930.197 650.906 932.792 649.299 935.41 647.741C938.677 655.447 949.139 665.324 956.937 668.46C957.941 668.864 958.784 669.065 959.878 669.058C957.736 675.284 953.644 679.913 949.227 684.658C948.767 682.01 948.379 679.27 947.665 676.676C944.623 665.624 937.264 657.821 927.467 652.262Z"/></svg>